<svg width="221" height="30" viewBox="0 0 221 30" fill="none" xmlns="http://www.w3.org/2000/svg">
<g clip-path="url(#clip0_407_7084)">
<path d="M214.71 0.8656C213.931 1.08702 213.228 1.51802 212.678 2.1116C212.241 2.56795 211.909 3.11323 211.703 3.71008C211.497 4.30694 211.422 4.94126 211.484 5.56961C211.546 6.19796 211.743 6.80548 212.062 7.35055C212.381 7.89563 212.813 8.36536 213.331 8.7276C213.848 9.09256 214.438 9.341 215.061 9.45579C215.683 9.57059 216.323 9.54903 216.937 9.39256C217.55 9.2361 218.122 8.94846 218.614 8.5495C219.105 8.15053 219.504 7.64973 219.784 7.0816C220.061 6.48811 220.209 5.84278 220.219 5.18791C220.229 4.53304 220.101 3.8834 219.842 3.2816C219.394 2.3509 218.639 1.60278 217.705 1.16284C216.77 0.722906 215.712 0.61795 214.71 0.8656ZM217.11 1.7856C217.79 2.03962 218.375 2.49836 218.784 3.09866C219.193 3.69896 219.406 4.4113 219.393 5.1376C219.404 5.62679 219.311 6.11268 219.12 6.56311C218.929 7.01354 218.644 7.41826 218.285 7.75052C217.926 8.08278 217.5 8.335 217.036 8.49051C216.572 8.64601 216.08 8.70127 215.594 8.6526C214.818 8.60273 214.081 8.29999 213.494 7.79079C212.908 7.28158 212.504 6.59402 212.346 5.83354C212.188 5.07306 212.283 4.28166 212.618 3.58064C212.952 2.87963 213.508 2.30772 214.199 1.95261C214.647 1.72847 215.137 1.59799 215.638 1.56911C216.139 1.54023 216.641 1.61355 217.112 1.78461L217.11 1.7856Z" fill="white"/>
<path d="M214.041 5.15321V7.49722H214.412C214.753 7.49722 214.768 7.43822 214.812 6.56322C214.856 5.71722 214.886 5.64321 215.212 5.59921C215.642 5.52521 216.28 6.11822 216.636 6.91922C216.874 7.41922 216.963 7.49821 217.407 7.49821C217.674 7.49821 217.896 7.43921 217.896 7.37921C217.623 6.77336 217.251 6.21711 216.796 5.73322C216.574 5.54022 216.589 5.51022 217.004 5.25822C217.257 5.11213 217.457 4.89035 217.577 4.62424C217.696 4.35812 217.729 4.06113 217.671 3.77522C217.523 3.10822 217.226 2.97522 215.565 2.90022L214.041 2.82422V5.15321ZM216.562 3.78822C216.932 4.15922 216.932 4.26323 216.577 4.58823C216.434 4.68824 216.272 4.75823 216.101 4.79398C215.93 4.82972 215.754 4.83049 215.583 4.79622C214.915 4.75222 214.857 4.72221 214.812 4.33621C214.722 3.62421 214.856 3.49022 215.598 3.49022C215.771 3.47036 215.945 3.48659 216.111 3.53789C216.277 3.58919 216.431 3.67445 216.562 3.78822Z" fill="white"/>
<path d="M73.3198 5.13792C72.9814 5.28079 72.6994 5.53098 72.5172 5.84993C72.3351 6.16888 72.2629 6.53889 72.3118 6.90292C72.4548 7.25679 72.6824 7.57024 72.9746 7.81586C73.2667 8.06148 73.6146 8.23179 73.9877 8.31192C75.8717 8.62392 77.3697 6.85792 76.2427 5.62692C75.8824 5.22721 75.3974 4.96129 74.8666 4.8725C74.3358 4.7837 73.7906 4.87725 73.3198 5.13792Z" fill="#FF302F"/>
<path d="M152.231 5.96835L151.297 6.33936V29.0194L152.825 28.9754L154.338 28.9304L154.412 23.1154L154.486 17.2864L155.302 16.6784C156.235 15.859 157.414 15.3738 158.654 15.2994C158.921 15.2522 159.196 15.2679 159.456 15.3451C159.717 15.4223 159.955 15.559 160.154 15.7444C161.178 16.5754 161.222 16.8574 161.237 23.3244V29.0054H164.219L164.174 22.5824C164.129 16.2634 164.129 16.1594 163.788 15.5514C163.368 14.5815 162.584 13.8155 161.604 13.4187C160.625 13.0219 159.528 13.0261 158.552 13.4304C157.326 13.8063 156.204 14.4611 155.274 15.3434C154.814 15.7584 154.429 16.1004 154.399 16.1004C154.369 16.1004 154.354 13.7274 154.384 10.8344L154.414 5.56836L153.791 5.58336C153.254 5.62951 152.728 5.75941 152.231 5.96835Z" fill="white"/>
<path d="M4.44872 13.0584C3.08399 13.306 1.84719 14.0187 0.948722 15.0754C0.665733 15.4595 0.538552 15.9364 0.592723 16.4104C0.551532 16.6465 0.569222 16.8892 0.644229 17.1168C0.719236 17.3444 0.849239 17.5501 1.02272 17.7154C1.14624 17.8812 1.31163 18.0112 1.50194 18.092C1.69225 18.1729 1.90063 18.2017 2.10572 18.1754C2.44023 18.1789 2.77074 18.1025 3.06972 17.9524C3.30166 17.6914 3.47787 17.3857 3.58757 17.0542C3.69728 16.7227 3.73816 16.3723 3.70772 16.0244C3.70159 15.6454 3.79576 15.2716 3.98069 14.9407C4.16561 14.6099 4.43471 14.3338 4.76072 14.1404C5.27291 13.8972 5.84671 13.8145 6.40672 13.9034C7.41572 13.9484 7.59372 13.9924 8.11272 14.4034C8.51236 14.7948 8.8176 15.272 9.00525 15.7989C9.1929 16.3258 9.25804 16.8886 9.19572 17.4444V18.5714L7.23772 19.1204C2.29872 20.5194 -0.00127884 22.3894 -0.00127884 24.9984C-0.0573061 25.4882 -0.00678216 25.9843 0.146834 26.4528C0.300451 26.9212 0.553528 27.3509 0.888721 27.7124C1.28204 28.1574 1.77828 28.4994 2.33414 28.7086C2.89001 28.9178 3.4886 28.9877 4.07772 28.9124C5.53873 28.9166 6.95145 28.3895 8.05272 27.4294L9.12072 26.6294L9.19472 27.6084L9.26872 28.5874H12.2357V22.0754C12.2357 15.6524 12.2357 15.5754 11.9097 14.9554C11.4279 14.1434 10.6831 13.5203 9.79872 13.1894C8.03766 12.8254 6.22549 12.781 4.44872 13.0584ZM9.19572 22.5364V25.4144L8.20172 26.0674C6.13972 27.4174 4.89372 27.4324 3.73672 26.1264C2.41672 24.6264 2.87672 22.9814 5.01272 21.5264C6.26325 20.7397 7.60693 20.1119 9.01272 19.6574C9.15072 19.6584 9.19872 20.3264 9.19872 22.5364H9.19572Z" fill="white"/>
<path d="M23.6129 13.2067C22.3545 13.752 21.1847 14.482 20.1419 15.3727L19.5779 15.8327V13.1327H16.4629V28.6327L17.9759 28.6027L19.5039 28.5877L19.5779 22.6987L19.6519 16.8247L20.0229 16.5247C21.7139 15.1747 23.6229 14.5967 24.8729 15.0707C25.5057 15.368 26.0301 15.8553 26.3729 16.4647C26.5959 16.8507 26.6399 17.6807 26.6989 22.7387L26.7729 28.5827L28.3009 28.5977L29.8139 28.6277V17.0497L30.3779 16.5307C30.9935 15.9032 31.7595 15.4436 32.6029 15.1957C34.4419 14.5577 35.9399 15.0477 36.6519 16.4857C37.0079 17.2127 37.0079 17.2427 37.0519 22.8787L37.0959 28.5447L38.5789 28.5887C39.0979 28.623 39.6187 28.618 40.1369 28.5737C40.2699 28.4397 40.1809 17.4187 40.0479 16.6737C39.9235 15.9227 39.6272 15.2105 39.1821 14.593C38.737 13.9754 38.1551 13.4692 37.4819 13.1137C36.4091 12.7727 35.2609 12.747 34.1739 13.0397C32.8188 13.4403 31.5783 14.1573 30.5549 15.1317L29.8129 15.9317L29.6049 15.4427C29.1173 14.4853 28.3309 13.713 27.3649 13.2427C26.7765 12.9757 26.1388 12.8345 25.4927 12.8283C24.8466 12.8221 24.2063 12.951 23.6129 13.2067Z" fill="white"/>
<path d="M48.3246 13.1172C45.2536 14.1112 43.2516 16.9742 43.0586 20.6972C42.9032 22.1178 43.1714 23.5527 43.8296 24.8212C44.4306 25.9612 45.3046 26.9345 46.3736 27.6541C47.4426 28.3738 48.6733 28.8174 49.9556 28.9452C52.9076 29.2562 56.5266 26.9282 57.6836 23.9762L57.9956 23.2192L57.5656 22.9962L57.1356 22.7742L56.8096 23.4272C56.1895 24.4519 55.3162 25.2998 54.2736 25.8892C50.2836 27.9362 46.5006 25.4002 46.0416 20.3892L45.9416 19.3662H57.6006L57.5006 18.5502C57.3296 17.2462 56.7697 16.024 55.8939 15.0429C55.018 14.0619 53.8669 13.3674 52.5906 13.0502C51.1809 12.7591 49.7245 12.782 48.3246 13.1172ZM51.3246 14.3482C51.9308 14.6236 52.4586 15.046 52.8603 15.577C53.2619 16.1081 53.5246 16.731 53.6246 17.3892L53.7246 18.0272H45.9516L46.0516 17.4782C46.1541 17.0479 46.3034 16.6301 46.4966 16.2322C47.5836 14.0962 49.2596 13.4432 51.3216 14.3482H51.3246Z" fill="white"/>
<path d="M66.9705 13.1607C66.0676 13.6398 65.2785 14.3076 64.6565 15.1187C64.4891 15.3752 64.2842 15.6051 64.0485 15.8007C63.9272 15.3668 63.8868 14.9142 63.9294 14.4657V13.1307H60.8145V20.8147C60.8145 25.0417 60.8444 28.5427 60.8734 28.5727C61.3913 28.6166 61.9118 28.6216 62.4305 28.5877L63.9305 28.5437V17.9487L64.4305 17.2067C65.2615 15.9757 65.8244 15.5007 66.4774 15.5007C66.8789 15.5249 67.2718 15.6268 67.6345 15.8007C68.6575 16.3197 70.3935 16.1117 70.6605 15.4297C70.7532 15.1337 70.78 14.8209 70.7391 14.5134C70.6982 14.2059 70.5904 13.9111 70.4235 13.6497C69.9706 13.2185 69.3944 12.9396 68.7753 12.8519C68.1562 12.7642 67.5252 12.8722 66.9705 13.1607Z" fill="white"/>
<path d="M73.9116 13.2509L72.9766 13.6219V28.6359H75.9435V12.8359L75.3946 12.8509C74.8818 12.9029 74.3809 13.038 73.9116 13.2509Z" fill="white"/>
<path d="M84.8434 13.1173C83.5791 13.4826 82.4464 14.2035 81.5804 15.1943C80.935 15.8037 80.3944 16.5152 79.9804 17.3003C77.7804 21.8393 79.6244 26.9714 84.0444 28.5734C85.5736 29.023 87.1993 29.0282 88.7314 28.5884C89.8321 28.1353 90.8153 27.4378 91.6067 26.5487C92.3981 25.6596 92.9769 24.6022 93.2994 23.4564C93.4624 22.9374 93.4624 22.8484 93.2104 22.6704C92.7504 22.3294 92.5724 22.4473 92.0384 23.5153C91.5708 24.6504 90.7134 25.5813 89.6204 26.1403C89.0064 26.4148 88.3438 26.5641 87.6714 26.5794C86.999 26.5947 86.3302 26.4757 85.7044 26.2293C84.518 25.5905 83.5745 24.5792 83.0194 23.3514C82.3513 21.9897 82.0691 20.4711 82.2034 18.9604C82.1739 18.2386 82.296 17.5186 82.5618 16.8469C82.8275 16.1752 83.231 15.5666 83.7464 15.0604C85.6464 13.3104 88.7604 13.6214 89.0714 15.5794C89.1164 15.8614 89.1714 16.3353 89.2344 16.6173C89.2783 16.9175 89.3965 17.2019 89.5783 17.4447C89.7601 17.6876 89.9996 17.8812 90.2752 18.008C90.5508 18.1347 90.8537 18.1906 91.1564 18.1706C91.459 18.1506 91.7519 18.0553 92.0084 17.8934C94.2924 16.7814 92.6904 13.8144 89.4274 13.0724C87.9138 12.7583 86.3504 12.7736 84.8434 13.1173Z" fill="white"/>
<path d="M99.6799 13.129C98.5146 13.4094 97.4512 14.0104 96.6099 14.864C96.2562 15.2789 96.0643 15.8077 96.0696 16.3529C96.0749 16.8982 96.2771 17.4231 96.6389 17.831C96.9221 18.0304 97.2552 18.1472 97.601 18.1682C97.9467 18.1892 98.2916 18.1137 98.5969 17.95C99.0428 17.3693 99.2689 16.6494 99.2349 15.918C99.2349 14.642 100.169 13.871 101.727 13.871C103.804 13.871 104.727 14.998 104.727 17.505V18.573L102.992 19.063C99.8328 19.953 98.2918 20.663 96.9398 21.896C96.4615 22.2673 96.0797 22.7483 95.8266 23.2983C95.5735 23.8483 95.4566 24.4512 95.4859 25.056C95.4506 25.5481 95.516 26.0421 95.6782 26.508C95.8404 26.9739 96.0959 27.4018 96.4292 27.7655C96.7624 28.1293 97.1663 28.4212 97.6162 28.6235C98.0661 28.8258 98.5526 28.9342 99.0459 28.942C99.8992 28.992 100.754 28.8723 101.561 28.5898C102.367 28.3072 103.11 27.8675 103.746 27.296C104.029 27.0556 104.326 26.8325 104.636 26.628C104.722 26.947 104.762 27.2767 104.755 27.607L104.799 28.586H107.766V22.074C107.766 15.651 107.766 15.574 107.44 14.954C106.959 14.1432 106.216 13.5206 105.334 13.189C103.473 12.7812 101.549 12.7607 99.6799 13.129ZM104.723 22.529V25.407L103.803 26C101.993 27.172 101.003 27.35 99.8869 26.7C99.5014 26.4274 99.178 26.0764 98.9378 25.6701C98.6975 25.2637 98.5459 24.8111 98.4929 24.342C98.4929 23.242 99.5458 22.013 101.356 20.99C102.369 20.4332 103.438 19.9857 104.545 19.655C104.68 19.66 104.721 20.329 104.721 22.537L104.723 22.529Z" fill="white"/>
<path d="M119.242 13.043C118.037 13.4211 116.94 14.0822 116.042 14.971L115.107 15.831V13.131H111.988V28.631L113.501 28.601L115.029 28.571L115.059 22.816L115.074 17.061L116.068 16.29C118.397 14.51 120.533 14.465 121.497 16.156C121.853 16.764 121.853 16.794 121.927 22.697L122.001 28.63H124.908L124.864 22.252C124.819 15.918 124.819 15.874 124.478 15.177C124.04 14.2942 123.333 13.5726 122.46 13.115C121.417 12.7823 120.3 12.7573 119.242 13.043Z" fill="white"/>
<path d="M140.111 13.3543C138.973 13.6631 137.914 14.2139 137.008 14.9691C136.102 15.7243 135.369 16.6661 134.86 17.7303C134.22 18.9551 133.903 20.3235 133.94 21.7053C133.916 22.6882 134.087 23.6663 134.444 24.5824C134.801 25.4985 135.337 26.3345 136.02 27.0414C136.703 27.7483 137.521 28.3121 138.424 28.7C139.328 29.0878 140.299 29.2919 141.282 29.3003C142.396 29.3327 143.5 29.0782 144.487 28.5613C145.474 28.0443 146.312 27.2823 146.919 26.3483C147.545 25.3879 148.02 24.3374 148.328 23.2333C148.106 23.0051 147.823 22.8455 147.512 22.7733C147.308 23.0899 147.13 23.4223 146.978 23.7673C146.475 24.8625 145.666 25.7894 144.649 26.4373C143.487 26.9727 142.171 27.0728 140.941 26.7193C140.043 26.3096 139.251 25.6974 138.628 24.9306C138.005 24.1637 137.568 23.2632 137.351 22.2993C137.093 21.3684 136.997 20.3998 137.069 19.4363C137 18.527 137.19 17.6166 137.618 16.8113C137.937 16.0448 138.484 15.3947 139.184 14.949C139.885 14.5033 140.705 14.2835 141.534 14.3193C143.195 14.3193 143.878 14.9573 144.07 16.6483C144.218 17.9533 144.77 18.4733 145.999 18.4733C146.267 18.4871 146.535 18.4426 146.784 18.343C147.033 18.2434 147.258 18.0909 147.443 17.8962C147.627 17.7015 147.767 17.4691 147.853 17.215C147.94 16.9609 147.97 16.6911 147.941 16.4243C147.63 15.0743 146.517 14.0803 144.633 13.4873C143.149 13.1468 141.613 13.1016 140.111 13.3543Z" fill="white"/>
<path d="M172.286 13.2215C170.931 13.4025 169.65 13.9456 168.578 14.7935C168.261 15.0256 168.007 15.3329 167.839 15.6876C167.671 16.0424 167.593 16.4334 167.614 16.8255C167.584 17.0948 167.624 17.3672 167.73 17.6165C167.836 17.8658 168.005 18.0837 168.219 18.249C168.434 18.4144 168.687 18.5217 168.955 18.5607C169.224 18.5997 169.497 18.5689 169.75 18.4715C170.358 18.2785 170.729 17.5075 170.729 16.4095C170.722 16.0004 170.829 15.5975 171.039 15.2463C171.249 14.895 171.552 14.6093 171.916 14.4215C172.416 14.233 172.952 14.1566 173.485 14.1976C174.018 14.2385 174.535 14.3958 175.001 14.6585C175.876 15.2375 176.143 15.9045 176.143 17.5505V18.9445L174.363 19.4445C170.135 20.6605 167.896 22.0845 167.228 23.9385C166.966 24.9559 166.971 26.0237 167.243 27.0385C167.574 27.7477 168.11 28.3416 168.781 28.7435C169.453 29.1454 170.229 29.337 171.011 29.2935C172.575 29.2982 174.083 28.7157 175.238 27.6615L176.217 26.9045V28.9965H179.347L179.303 22.4255L179.259 15.8695L178.843 15.1575C178.532 14.6779 178.122 14.2699 177.642 13.9605C177.161 13.651 176.62 13.4472 176.055 13.3625C174.812 13.1339 173.542 13.0864 172.286 13.2215ZM176.217 22.8775V25.8145L175.357 26.3485C174.007 27.2235 173.562 27.4015 172.747 27.4165C172.329 27.4426 171.911 27.3558 171.538 27.1653C171.165 26.9748 170.85 26.6875 170.626 26.3335C169.172 24.1975 170.526 22.2395 174.616 20.5335C175.373 20.2225 176.04 19.9555 176.116 19.9555C176.219 20.9258 176.253 21.9023 176.217 22.8775Z" fill="white"/>
<path d="M186.451 13.3987C185.59 13.6078 184.811 14.0671 184.211 14.7187C183.817 15.0613 183.512 15.4935 183.321 15.9789C183.129 16.4643 183.057 16.9887 183.111 17.5077C183.111 19.6437 183.972 20.6227 187.339 22.3137C189.875 23.6037 190.78 24.2277 191.106 24.9137C191.981 26.7677 190.142 28.5627 187.724 28.2067C186.535 27.8961 185.48 27.2028 184.724 26.2337L183.938 25.3137L183.3 25.8917L182.662 26.4557L183.462 27.2867C184.117 27.9694 184.912 28.5029 185.792 28.8509C186.672 29.199 187.617 29.3534 188.562 29.3037C192.033 29.2887 194.303 27.5387 194.362 24.7947C194.396 24.2183 194.292 23.6422 194.06 23.1136C193.828 22.585 193.474 22.1189 193.027 21.7537C192.241 21.0417 191.781 20.7747 188.327 19.1537C185.998 18.0707 185.405 17.4777 185.405 16.2467C185.405 15.8414 185.539 15.4475 185.786 15.1258C186.032 14.8041 186.378 14.5725 186.769 14.4667C188.653 13.6507 191.026 14.5857 192.376 16.6667L192.598 17.0077L193.192 16.5077L193.77 16.0077L192.895 15.0877C192.375 14.5273 191.763 14.0605 191.085 13.7077C190.352 13.3191 189.526 13.1396 188.697 13.1887C187.942 13.1143 187.179 13.1856 186.451 13.3987Z" fill="white"/>
<path d="M202.485 13.3705C199.085 14.2705 196.834 17.5705 196.834 21.5705C196.78 22.5792 196.944 23.5879 197.315 24.5274C197.687 25.467 198.256 26.3153 198.985 27.0145C199.989 28.0545 201.276 28.7775 202.687 29.0938C204.097 29.4102 205.569 29.3061 206.921 28.7945C208.979 27.9291 210.629 26.311 211.534 24.2705L211.801 23.5435L211.356 23.3655C211.211 23.2831 211.048 23.2371 210.881 23.2315C210.866 23.2615 210.717 23.5575 210.554 23.8695C209.917 24.9372 208.985 25.7976 207.869 26.3465C206.559 26.9692 205.066 27.0957 203.669 26.7025C202.484 26.1798 201.493 25.2975 200.836 24.1805C200.232 22.9946 199.878 21.697 199.797 20.3685V19.6565H211.367V19.3155C211.256 18.4139 211.011 17.5339 210.64 16.7045C209.988 15.6141 209.076 14.702 207.985 14.0495C206.298 13.155 204.34 12.9133 202.485 13.3705ZM205.066 14.6755C205.691 14.967 206.234 15.4076 206.647 15.9585C207.061 16.5094 207.333 17.1537 207.439 17.8345L207.539 18.4725H199.751L199.851 17.8645C199.961 17.2275 200.205 16.6208 200.565 16.0841C200.925 15.5474 201.395 15.0926 201.942 14.7495C202.415 14.4769 202.949 14.3273 203.495 14.3143C204.041 14.3014 204.581 14.4256 205.066 14.6755Z" fill="white"/>
</g>
<defs>
<clipPath id="clip0_407_7084">
<rect width="220.219" height="28.604" fill="white" transform="translate(0 0.697266)"/>
</clipPath>
</defs>
</svg>
